<?xml version="1.0" encoding="utf-8"?>
<!-- Generator: Adobe Illustrator 27.1.0, SVG Export Plug-In . SVG Version: 6.00 Build 0)  -->
<svg version="1.1" id="Layer_1" xmlns="http://www.w3.org/2000/svg" xmlns:xlink="http://www.w3.org/1999/xlink" x="0px" y="0px"
	 viewBox="0 0 224 82" style="enable-background:new 0 0 224 82;" xml:space="preserve">
<style type="text/css">
	.st0{opacity:0.2;fill:#FA7275;enable-background:new    ;}
	.st1{fill:#FA7275;}
</style>
<path class="st0" d="M37.4,0L37.4,0c20.7,0,37.4,16.8,37.4,37.4v0c0,20.7-16.8,37.4-37.4,37.4h0C16.8,74.8,0,58.1,0,37.4v0
	C0,16.8,16.8,0,37.4,0z"/>
<path class="st1" d="M57.7,31.2L57.7,31.2c13.8,0,24.9,11.2,24.9,24.9l0,0c0,13.8-11.2,24.9-24.9,24.9h0
	c-13.8,0-24.9-11.2-24.9-24.9l0,0C32.7,42.3,43.9,31.2,57.7,31.2z"/>
<g>
	<path class="st1" d="M107.7,65.3c-1.8-0.8-3.2-1.9-4.2-3.3c-1-1.4-1.5-3.1-1.5-5h5.8c0.1,1.4,0.7,2.6,1.7,3.5
		c1,0.9,2.4,1.4,4.2,1.4c1.9,0,3.3-0.5,4.4-1.4c1-0.9,1.6-2.1,1.6-3.5c0-1.1-0.3-2-1-2.7c-0.7-0.7-1.5-1.2-2.4-1.6
		c-1-0.4-2.3-0.8-4-1.2c-2.2-0.6-3.9-1.2-5.3-1.7c-1.4-0.6-2.5-1.5-3.5-2.7c-1-1.2-1.4-2.9-1.4-5c0-1.9,0.5-3.6,1.4-5
		c1-1.4,2.3-2.5,4-3.3c1.7-0.8,3.7-1.1,6-1.1c3.2,0,5.8,0.8,7.9,2.4c2.1,1.6,3.2,3.8,3.4,6.6h-6c-0.1-1.2-0.7-2.2-1.7-3.1
		c-1-0.9-2.4-1.3-4.1-1.3c-1.6,0-2.8,0.4-3.8,1.2c-1,0.8-1.5,1.9-1.5,3.4c0,1,0.3,1.9,0.9,2.5c0.6,0.7,1.4,1.2,2.4,1.5
		c1,0.4,2.3,0.8,3.9,1.2c2.2,0.6,4,1.2,5.4,1.8c1.4,0.6,2.6,1.5,3.5,2.8c1,1.3,1.5,2.9,1.5,5c0,1.7-0.5,3.3-1.4,4.8
		c-0.9,1.5-2.2,2.7-4,3.6c-1.7,0.9-3.8,1.4-6.1,1.4C111.5,66.4,109.5,66,107.7,65.3z"/>
	<path class="st1" d="M138,44.2v14.5c0,1,0.2,1.7,0.7,2.1c0.5,0.4,1.2,0.6,2.4,0.6h3.3v4.5h-4.3c-2.4,0-4.3-0.6-5.6-1.7
		c-1.3-1.1-2-3-2-5.6V44.2h-3.1v-4.4h3.1v-6.5h5.5v6.5h6.4v4.4H138z"/>
	<path class="st1" d="M154,64.8c-2-1.1-3.6-2.7-4.7-4.8c-1.1-2.1-1.7-4.4-1.7-7.1c0-2.7,0.6-5,1.8-7.1c1.2-2.1,2.8-3.7,4.8-4.8
		c2-1.1,4.3-1.7,6.8-1.7c2.5,0,4.8,0.6,6.8,1.7c2,1.1,3.6,2.7,4.8,4.8c1.2,2.1,1.8,4.4,1.8,7.1c0,2.7-0.6,5-1.8,7.1
		c-1.2,2.1-2.9,3.7-4.9,4.8c-2.1,1.1-4.4,1.7-6.9,1.7C158.3,66.5,156,66,154,64.8z M164.7,60.8c1.2-0.7,2.2-1.7,3-3
		c0.8-1.3,1.1-3,1.1-4.9c0-1.9-0.4-3.5-1.1-4.8c-0.7-1.3-1.7-2.3-2.9-3c-1.2-0.7-2.5-1-3.9-1c-1.4,0-2.7,0.3-3.9,1
		c-1.2,0.7-2.1,1.7-2.8,3c-0.7,1.3-1,2.9-1,4.8c0,2.8,0.7,5,2.2,6.6c1.4,1.5,3.3,2.3,5.5,2.3C162.2,61.8,163.5,61.5,164.7,60.8z"/>
	<path class="st1" d="M188.4,40.5c1.3-0.7,2.9-1.1,4.7-1.1V45h-1.4c-2.1,0-3.7,0.5-4.8,1.6c-1.1,1.1-1.6,3-1.6,5.6v13.8h-5.4V39.8
		h5.4v3.8C186,42.3,187.1,41.2,188.4,40.5z"/>
	<path class="st1" d="M197.9,45.8c1.1-2,2.6-3.6,4.5-4.7s4-1.7,6.3-1.7c2.1,0,3.9,0.4,5.4,1.2c1.5,0.8,2.8,1.8,3.7,3v-3.8h5.5v26.3
		h-5.5v-3.9c-0.9,1.2-2.2,2.3-3.8,3.1c-1.6,0.8-3.4,1.2-5.4,1.2c-2.3,0-4.3-0.6-6.2-1.7c-1.9-1.2-3.4-2.8-4.5-4.9
		c-1.1-2.1-1.6-4.4-1.6-7.1C196.3,50.2,196.9,47.9,197.9,45.8z M216.7,48.2c-0.7-1.3-1.7-2.4-2.9-3.1c-1.2-0.7-2.5-1-3.9-1
		c-1.4,0-2.7,0.3-3.9,1c-1.2,0.7-2.2,1.7-2.9,3c-0.7,1.3-1.1,2.9-1.1,4.7c0,1.8,0.4,3.4,1.1,4.8c0.7,1.4,1.7,2.4,3,3.1
		c1.2,0.7,2.5,1.1,3.9,1.1c1.4,0,2.7-0.3,3.9-1c1.2-0.7,2.2-1.7,2.9-3.1c0.7-1.4,1.1-2.9,1.1-4.7C217.8,51.1,217.4,49.5,216.7,48.2z
		"/>
</g>
</svg>
